<svg width="800" height="800" viewBox="0 0 800 800" fill="none" xmlns="http://www.w3.org/2000/svg">
<path d="M681.25 150H118.75C94.5875 150 75 169.588 75 193.75V606.25C75 630.412 94.5875 650 118.75 650H681.25C705.412 650 725 630.412 725 606.25V193.75C725 169.588 705.412 150 681.25 150Z" stroke="white" stroke-width="50" stroke-linejoin="round"/>
<path d="M681.25 525H643.75C619.588 525 600 544.588 600 568.75V606.25C600 630.412 619.588 650 643.75 650H681.25C705.412 650 725 630.412 725 606.25V568.75C725 544.588 705.412 525 681.25 525Z" stroke="white" stroke-width="50" stroke-linejoin="round"/>
<path d="M681.25 400H643.75C619.588 400 600 419.588 600 443.75V481.25C600 505.412 619.588 525 643.75 525H681.25C705.412 525 725 505.412 725 481.25V443.75C725 419.588 705.412 400 681.25 400Z" stroke="white" stroke-width="50" stroke-linejoin="round"/>
<path d="M681.25 275H643.75C619.588 275 600 294.588 600 318.75V356.25C600 380.412 619.588 400 643.75 400H681.25C705.412 400 725 380.412 725 356.25V318.75C725 294.588 705.412 275 681.25 275Z" stroke="white" stroke-width="50" stroke-linejoin="round"/>
<path d="M681.25 150H643.75C619.588 150 600 169.588 600 193.75V231.25C600 255.412 619.588 275 643.75 275H681.25C705.412 275 725 255.412 725 231.25V193.75C725 169.588 705.412 150 681.25 150Z" stroke="white" stroke-width="50" stroke-linejoin="round"/>
<path d="M156.25 525H118.75C94.5875 525 75 544.588 75 568.75V606.25C75 630.412 94.5875 650 118.75 650H156.25C180.412 650 200 630.412 200 606.25V568.75C200 544.588 180.412 525 156.25 525Z" stroke="white" stroke-width="50" stroke-linejoin="round"/>
<path d="M156.25 400H118.75C94.5875 400 75 419.588 75 443.75V481.25C75 505.412 94.5875 525 118.75 525H156.25C180.412 525 200 505.412 200 481.25V443.75C200 419.588 180.412 400 156.25 400Z" stroke="white" stroke-width="50" stroke-linejoin="round"/>
<path d="M156.25 275H118.75C94.5875 275 75 294.588 75 318.75V356.25C75 380.412 94.5875 400 118.75 400H156.25C180.412 400 200 380.412 200 356.25V318.75C200 294.588 180.412 275 156.25 275Z" stroke="white" stroke-width="50" stroke-linejoin="round"/>
<path d="M156.25 150H118.75C94.5875 150 75 169.588 75 193.75V231.25C75 255.412 94.5875 275 118.75 275H156.25C180.412 275 200 255.412 200 231.25V193.75C200 169.588 180.412 150 156.25 150Z" stroke="white" stroke-width="50" stroke-linejoin="round"/>
<path d="M556.25 150H243.75C219.588 150 200 169.588 200 193.75V356.25C200 380.412 219.588 400 243.75 400H556.25C580.412 400 600 380.412 600 356.25V193.75C600 169.588 580.412 150 556.25 150Z" stroke="white" stroke-width="50" stroke-linejoin="round"/>
<path d="M556.25 400H243.75C219.588 400 200 419.588 200 443.75V606.25C200 630.412 219.588 650 243.75 650H556.25C580.412 650 600 630.412 600 606.25V443.75C600 419.588 580.412 400 556.25 400Z" stroke="white" stroke-width="50" stroke-linejoin="round"/>
</svg>
